<svg width="24" height="24" viewBox="0 0 24 24" fill="none" xmlns="http://www.w3.org/2000/svg">
<g clip-path="url(#clip0)">
<path fill-rule="evenodd" clip-rule="evenodd" d="M11.9998 3C11.9998 3 12.5 3 12.5 4L12 5L11.9245 5.00011C11.8745 5.00022 11.8006 5.00044 11.7057 5.00089C11.5159 5.00178 11.2425 5.00356 10.9088 5.00713C10.241 5.01427 9.33397 5.02855 8.37469 5.05706C7.41382 5.08561 6.40859 5.12821 5.54211 5.19141C4.654 5.25619 3.99411 5.3376 3.66534 5.42419C3.36664 5.51 3.09557 5.67253 2.87913 5.89566C2.668 6.11332 2.51609 6.38119 2.4376 6.67375C2.13806 8.34737 1.99158 10.0448 1.99998 11.7451L2.00004 11.7563C1.98932 13.4635 2.1347 15.1681 2.43447 16.8487C2.52109 17.1264 2.67452 17.3788 2.88157 17.5837C3.09848 17.7984 3.36693 17.9537 3.66113 18.0347C3.98845 18.1217 4.65019 18.2035 5.54211 18.2686C6.40859 18.3318 7.41382 18.3744 8.37469 18.4029C9.33397 18.4314 10.241 18.4457 10.9088 18.4529C11.2425 18.4564 11.5159 18.4582 11.7057 18.4591C11.8006 18.4596 11.8745 18.4598 11.9245 18.4599H12.0755C12.1255 18.4598 12.1994 18.4596 12.2943 18.4591C12.484 18.4582 12.7575 18.4564 13.0912 18.4529C13.7589 18.4457 14.666 18.4314 15.6253 18.4029C16.5862 18.3744 17.5914 18.3318 18.4579 18.2686C19.346 18.2038 20.0059 18.1224 20.3346 18.0358C20.6333 17.95 20.9044 17.7875 21.1209 17.5643C21.332 17.3467 21.4839 17.0788 21.5624 16.7863C21.8596 15.1253 22.0061 13.4409 22 11.7536L22 11.7437C22.0107 10.0306 21.8643 8.32008 21.5624 6.63377C21.4839 6.3412 21.332 6.07333 21.1209 5.85566C20.9069 5.63509 20.6395 5.47373 20.3449 5.38717C20.0049 5.3072 19.3426 5.23348 18.4642 5.17498C17.5959 5.11716 16.5893 5.07822 15.6279 5.05213C14.6679 5.02609 13.7602 5.01304 13.0921 5.00651C12.7582 5.00325 12.4846 5.00162 12.2947 5.00081L12.0757 5.0001L12 5L12.5 4C12.5 3 11.9998 3 11.9998 3L12.0797 3.0001C12.1312 3.00021 12.2067 3.00042 12.3033 3.00083C12.4963 3.00166 12.7736 3.00331 13.1116 3.00661C13.7873 3.01321 14.7071 3.02641 15.6821 3.05287C16.6557 3.07928 17.6916 3.11909 18.5971 3.1794C19.4767 3.23798 20.3115 3.32017 20.8372 3.44854C20.8489 3.45141 20.8606 3.45448 20.8722 3.45777C21.5123 3.63886 22.0933 3.98566 22.5564 4.46315C23.0196 4.94063 23.3485 5.53189 23.5101 6.17719V6.24249H23.5241C23.852 8.06021 24.0113 9.90432 24 11.7513C24.0062 13.5707 23.847 15.3869 23.5241 17.1774C23.5202 17.1994 23.5155 17.2212 23.5101 17.2428C23.3485 17.8881 23.0196 18.4794 22.5564 18.9568C22.0933 19.4343 21.5123 19.7811 20.8722 19.9622L20.8584 19.966C20.3247 20.1088 19.4827 20.1992 18.6034 20.2633C17.6961 20.3295 16.6588 20.3731 15.6847 20.4021C14.709 20.4311 13.7885 20.4455 13.1126 20.4528C12.7744 20.4564 12.4969 20.4582 12.3037 20.4591C12.207 20.4595 12.1315 20.4598 12.0799 20.4599L12.0004 20.46L11.9201 20.4599C11.8685 20.4598 11.7929 20.4595 11.6963 20.4591C11.5031 20.4582 11.2256 20.4564 10.8874 20.4528C10.2114 20.4455 9.29102 20.4311 8.31529 20.4021C7.34116 20.3731 6.30389 20.3295 5.39662 20.2633C4.51732 20.1992 3.67528 20.1088 3.14163 19.966L3.13607 19.9646C2.509 19.793 1.93678 19.4626 1.4747 19.0052C1.01262 18.5479 0.6763 17.9792 0.498233 17.3539C0.489194 17.3222 0.481732 17.29 0.475874 17.2575C0.148034 15.44 -0.0112736 13.5961 -2.3182e-05 11.7493C-0.00873744 9.91636 0.150558 8.08643 0.475866 6.28253C0.479821 6.2606 0.484507 6.23881 0.489917 6.21719C0.651435 5.57189 0.980387 4.98063 1.44355 4.50315C1.90671 4.02566 2.48767 3.67886 3.12776 3.49777L3.14163 3.49395C3.67528 3.35123 4.51732 3.26085 5.39662 3.19671C6.30389 3.13054 7.34116 3.08689 8.31529 3.05794C9.29102 3.02895 10.2114 3.01448 10.8874 3.00724C11.2256 3.00363 11.5031 3.00182 11.6963 3.00091C11.7929 3.00046 11.8685 3.00023 11.9201 3.00011L11.9998 3Z" fill="white"/>
<path fill-rule="evenodd" clip-rule="evenodd" d="M9.24717 7.61561C9.55499 7.43655 9.93479 7.4347 10.2443 7.61073L15.9943 10.8807C16.3069 11.0585 16.5 11.3904 16.5 11.75C16.5 12.1096 16.3069 12.4415 15.9943 12.6193L10.2443 15.8893C9.93479 16.0653 9.55499 16.0634 9.24717 15.8844C8.93936 15.7053 8.74999 15.3761 8.74999 15.02V8.48C8.74999 8.1239 8.93936 7.79466 9.24717 7.61561ZM10.75 10.1991V13.3009L13.4771 11.75L10.75 10.1991Z" fill="white"/>
</g>
<defs>
<clipPath id="clip0">
<rect width="24" height="24" fill="white"/>
</clipPath>
</defs>
</svg>
